<svg width="100" height="26" viewBox="0 0 100 26" fill="none" xmlns="http://www.w3.org/2000/svg">
<path fill-rule="evenodd" clip-rule="evenodd" d="M14.9488 12.3016C14.9768 15.6056 17.8344 16.696 17.8696 16.708C17.8528 16.784 17.4224 18.284 16.3504 19.8056C15.4552 21.1456 14.5168 22.456 13.028 22.48C11.5808 22.5136 11.0952 21.6264 9.43522 21.6264C7.76002 21.6264 7.24162 22.456 5.85362 22.5136C4.43522 22.5664 3.35122 21.0824 2.42402 19.7544C0.571219 17.044 -0.872782 12.1144 1.06242 8.76081C2.00002 7.11522 3.71042 6.05602 5.53762 6.02801C6.95762 5.99761 8.27522 6.98802 9.14802 6.98802C10.004 6.98802 11.6328 5.80402 13.3128 5.98002C14.0152 6.00082 16.0168 6.25841 17.3072 8.14161C17.2024 8.20481 14.924 9.54562 14.9488 12.3016ZM12.2152 4.19761C11.4368 5.11761 10.1904 5.82162 8.97682 5.73041C8.81842 4.48881 9.43282 3.16882 10.1208 2.36322C10.9 1.44882 12.2504 0.748815 13.3312 0.700015C13.472 1.99122 12.9616 3.26321 12.2152 4.19761ZM28.2464 17.6H32.0008L30.1496 12.144H30.0984L28.2464 17.6ZM32.492 19.152H27.756L26.6184 22.5144H24.6128L29.0992 10.0744H31.1832L35.6688 22.5144H33.6288L32.492 19.152ZM43.4464 17.98C43.4464 16.144 42.4976 14.9368 41.052 14.9368C39.6312 14.9368 38.676 16.1688 38.676 17.98C38.676 19.808 39.6312 21.032 41.052 21.032C42.4976 21.032 43.4464 19.832 43.4464 17.98ZM45.3576 17.98C45.3576 20.7984 43.8504 22.6096 41.576 22.6096C40.2856 22.6096 39.2608 22.0312 38.7264 21.0224H38.6832V25.5144H36.824V13.4448H38.624V14.9536H38.6584C39.176 13.9808 40.2784 13.3504 41.5432 13.3504C43.8424 13.3504 45.3584 15.1696 45.3584 17.98H45.3576ZM53.416 17.98C53.416 16.144 52.468 14.9368 51.0224 14.9368C49.6016 14.9368 48.6464 16.1688 48.6464 17.98C48.6464 19.808 49.6016 21.032 51.0224 21.032C52.468 21.032 53.416 19.832 53.416 17.98ZM55.3272 17.98C55.3272 20.7984 53.8208 22.6096 51.5464 22.6096C50.256 22.6096 49.2312 22.0312 48.6968 21.0224H48.6544V25.5144H46.7944V13.4448H48.5944V14.9536H48.628C49.1456 13.9808 50.2472 13.3504 51.5128 13.3504C53.812 13.3504 55.3272 15.1696 55.3272 17.98ZM61.9176 19.048C62.0544 20.2824 63.252 21.092 64.8872 21.092C66.4552 21.092 67.5824 20.2824 67.5824 19.1696C67.5824 18.204 66.9024 17.6256 65.292 17.2296L63.6816 16.8416C61.4 16.2896 60.3408 15.2216 60.3408 13.4872C60.3408 11.3416 62.2096 9.86721 64.8616 9.86721C67.4872 9.86721 69.2872 11.3416 69.3472 13.4872H67.4704C67.3584 12.2464 66.3328 11.4968 64.836 11.4968C63.3368 11.4968 62.3128 12.2552 62.3128 13.3584C62.3128 14.2384 62.9672 14.756 64.5688 15.152L65.9376 15.488C68.4872 16.092 69.5464 17.1168 69.5464 18.9368C69.5464 21.264 67.6944 22.7208 64.7496 22.7208C61.9944 22.7208 60.1336 21.2976 60.0136 19.0488H61.9176V19.048ZM73.5592 11.2984V13.4448H75.2816V14.9192H73.5592V19.9192C73.5592 20.696 73.904 21.0576 74.6616 21.0576C74.8504 21.0576 75.1528 21.032 75.2728 21.0144V22.48C75.0672 22.532 74.6536 22.5664 74.24 22.5664C72.4064 22.5664 71.6912 21.876 71.6912 20.1184V14.9184H70.3744V13.4448H71.6912V11.2984H73.5592ZM82.9784 17.98C82.9784 16.0232 82.0832 14.8672 80.576 14.8672C79.0696 14.8672 78.1744 16.0312 78.1744 17.98C78.1744 19.9456 79.0696 21.092 80.576 21.092C82.0832 21.092 82.9784 19.9456 82.9784 17.98ZM76.28 17.98C76.28 15.1264 77.9584 13.3328 80.576 13.3328C83.2024 13.3328 84.8736 15.1264 84.8736 17.9808C84.8736 20.8408 83.2112 22.6264 80.576 22.6264C77.9416 22.6264 76.28 20.8408 76.28 17.98ZM86.4064 13.4448H88.18V14.9888H88.2232C88.5072 13.9624 89.3336 13.3504 90.4016 13.3504C90.6688 13.3504 90.892 13.3856 91.0392 13.4192V15.1608C90.892 15.1 90.5648 15.0488 90.2032 15.0488C89.0064 15.0488 88.2664 15.86 88.2664 17.1352V22.5144H86.4064V13.4448ZM93.3264 17.144H97.8552C97.812 15.7552 96.9256 14.8416 95.6336 14.8416C94.3512 14.8416 93.4216 15.7736 93.3264 17.144ZM99.612 19.8504C99.3616 21.4976 97.7608 22.6264 95.712 22.6264C93.076 22.6264 91.44 20.8592 91.44 18.0232C91.44 15.1784 93.0848 13.3328 95.6336 13.3328C98.14 13.3328 99.716 15.0568 99.716 17.8072V18.4448H93.3176V18.5568C93.3176 20.1088 94.2912 21.1256 95.7544 21.1256C96.7872 21.1256 97.5976 20.6352 97.8472 19.8504H99.612ZM26.784 5.84322H27.9104C29.1584 5.84322 29.8784 5.06481 29.8784 3.69361C29.8784 2.34321 29.1472 1.55601 27.9104 1.55601H26.784V5.84322ZM28.0136 0.711215C29.784 0.711215 30.8224 1.80002 30.8224 3.68162C30.8224 5.59042 29.792 6.68882 28.0136 6.68882H25.856V0.711215H28.0128H28.0136ZM35.2056 4.43042C35.2056 3.45282 34.7656 2.88162 33.9976 2.88162C33.2232 2.88162 32.7896 3.45282 32.7896 4.43042C32.7896 5.41602 33.2232 5.98401 33.9976 5.98401C34.7656 5.98401 35.2056 5.41201 35.2056 4.43042ZM31.8704 4.43042C31.8704 2.97762 32.6808 2.09042 33.9968 2.09042C35.3088 2.09042 36.12 2.97762 36.12 4.43042C36.12 5.89282 35.312 6.77601 33.9968 6.77601C32.6768 6.77601 31.8704 5.89282 31.8704 4.43042ZM41.768 6.68802H40.8456L39.9152 3.36561H39.844L38.9176 6.68882H38.004L36.7616 2.17762H37.664L38.4704 5.62001H38.5376L39.464 2.17762H40.316L41.2432 5.62001H41.3128L42.116 2.17762H43.0056L41.768 6.68882V6.68802ZM44.0504 2.17762H44.9064V2.89442H44.972C45.1912 2.39282 45.6384 2.09042 46.316 2.09042C47.3224 2.09042 47.876 2.69442 47.876 3.76882V6.68882H46.9872V3.99201C46.9872 3.26641 46.6728 2.90642 46.0144 2.90642C45.3568 2.90642 44.9392 3.34642 44.9392 4.04882V6.68882H44.0504V2.17762ZM49.2936 6.68802H50.1832V0.416815H49.2936V6.68882V6.68802ZM54.7536 4.43042C54.7536 3.45282 54.3144 2.88162 53.5456 2.88162C52.7712 2.88162 52.3376 3.45282 52.3376 4.43042C52.3376 5.41602 52.7712 5.98401 53.5456 5.98401C54.3144 5.98401 54.7536 5.41201 54.7536 4.43042ZM51.4184 4.43042C51.4184 2.97762 52.2296 2.09042 53.5448 2.09042C54.8568 2.09042 55.668 2.97762 55.668 4.43042C55.668 5.89282 54.86 6.77601 53.5448 6.77601C52.2248 6.77601 51.4184 5.89282 51.4184 4.43042ZM59.5 5.02801V4.65041L58.4008 4.72001C57.78 4.76241 57.4992 4.97362 57.4992 5.37122C57.4992 5.77682 57.8504 6.01362 58.3336 6.01362C59.004 6.01362 59.5 5.58641 59.5 5.02801ZM56.604 5.41201C56.604 4.60081 57.208 4.13202 58.2808 4.06642L59.5 3.99602V3.60642C59.5 3.13042 59.1864 2.86082 58.5792 2.86082C58.0832 2.86082 57.7384 3.04321 57.6392 3.36161H56.7784C56.8696 2.58721 57.5976 2.09042 58.62 2.09042C59.7496 2.09042 60.3856 2.65362 60.3856 3.60642V6.68882H59.5296V6.05442H59.4592C59.1912 6.50642 58.6992 6.76241 58.1072 6.76241C57.2384 6.76241 56.6048 6.23681 56.6048 5.41201H56.604ZM62.4728 4.43042C62.4728 5.38722 62.9232 5.96322 63.6768 5.96322C64.4256 5.96322 64.8896 5.37922 64.8896 4.43522C64.8896 3.49522 64.4208 2.90242 63.6768 2.90242C62.928 2.90242 62.4728 3.48242 62.4728 4.43042ZM61.5544 4.43042C61.5544 3.00562 62.2864 2.10242 63.424 2.10242C64.0416 2.10242 64.5616 2.39682 64.8064 2.89442H64.8736V0.416016H65.7616V6.68802H64.9104V5.97442H64.8384C64.5712 6.46882 64.0448 6.76161 63.424 6.76161C62.2784 6.76161 61.5544 5.85922 61.5544 4.42962V4.43042ZM72.7752 4.43042C72.7752 3.45282 72.336 2.88162 71.5672 2.88162C70.7936 2.88162 70.3592 3.45282 70.3592 4.43042C70.3592 5.41602 70.7936 5.98401 71.5672 5.98401C72.336 5.98401 72.7752 5.41201 72.7752 4.43042ZM69.4408 4.43042C69.4408 2.97762 70.252 2.09042 71.5672 2.09042C72.8784 2.09042 73.6904 2.97762 73.6904 4.43042C73.6904 5.89282 72.8824 6.77601 71.5672 6.77601C70.248 6.77601 69.4408 5.89282 69.4408 4.43042ZM74.884 2.17762H75.7392V2.89442H75.8056C76.0248 2.39282 76.472 2.09042 77.1504 2.09042C78.156 2.09042 78.7104 2.69442 78.7104 3.76882V6.68882H77.8208V3.99201C77.8208 3.26641 77.5064 2.90642 76.848 2.90642C76.1904 2.90642 75.7728 3.34642 75.7728 4.04882V6.68882H74.884V2.17762ZM83.7336 1.05522V2.19842H84.7104V2.94882H83.7336V5.26721C83.7336 5.74001 83.9288 5.94722 84.3712 5.94722C84.508 5.94722 84.5864 5.93922 84.7104 5.92642V6.66801C84.5507 6.69693 84.3887 6.71219 84.2264 6.71361C83.2376 6.71361 82.844 6.36562 82.844 5.49602V2.94802H82.1288V2.19842H82.844V1.05442H83.7336V1.05522ZM85.9248 0.416815H86.8064V2.90242H86.8768C87.0944 2.39682 87.5712 2.09442 88.2504 2.09442C89.2096 2.09442 89.8024 2.70402 89.8024 3.77681V6.68882H88.912V3.99602C88.912 3.27602 88.5768 2.91041 87.948 2.91041C87.22 2.91041 86.8136 3.37122 86.8136 4.05442V6.68882H85.9248V0.416815ZM91.8584 4.01681H94.1344C94.1136 3.30882 93.6832 2.84802 93.0248 2.84802C92.3672 2.84802 91.908 3.31202 91.8584 4.01681ZM94.9864 5.47041C94.784 6.27841 94.0632 6.77601 93.0336 6.77601C91.7432 6.77601 90.9528 5.88962 90.9528 4.44642C90.9528 3.00562 91.76 2.09042 93.0296 2.09042C94.284 2.09042 95.04 2.94801 95.04 4.36481V4.67521H91.8584V4.72561C91.888 5.51601 92.3472 6.01761 93.0576 6.01761C93.5976 6.01761 93.9656 5.82241 94.1304 5.47041H94.9864Z" fill="#FFFFFE"/>
</svg>
