<svg width="112" height="27" viewBox="0 0 112 27" fill="none" xmlns="http://www.w3.org/2000/svg">
<path d="M36.3041 3.59201C36.3041 4.36001 36.1121 5.03201 35.6321 5.51201C35.0561 6.08801 34.3841 6.37601 33.5201 6.37601C32.6561 6.37601 31.9841 6.08801 31.4081 5.51201C30.8321 4.93601 30.5441 4.26401 30.5441 3.40001C30.5441 2.53601 30.8321 1.86401 31.4081 1.28801C31.9841 0.712011 32.6561 0.424011 33.5201 0.424011C33.9041 0.424011 34.2881 0.520012 34.6721 0.712012C35.0561 0.904012 35.3441 1.09601 35.5361 1.38401L35.0561 1.86401C34.6721 1.38401 34.1921 1.19201 33.5201 1.19201C32.9441 1.19201 32.3681 1.38401 31.9841 1.86401C31.5041 2.24801 31.3121 2.82401 31.3121 3.49601C31.3121 4.16801 31.5041 4.74401 31.9841 5.12801C32.4641 5.51201 32.9441 5.80001 33.5201 5.80001C34.1921 5.80001 34.6721 5.60801 35.1521 5.12801C35.4401 4.84001 35.6321 4.45601 35.6321 3.97601H33.5201V3.30401H36.3041V3.59201ZM40.7201 1.19201H38.1281V3.01601H40.5281V3.68801H38.1281V5.51201H40.7201V6.28001H37.3601V0.520011H40.7201V1.19201ZM43.8881 6.28001H43.1201V1.19201H41.4881V0.520011H45.5201V1.19201H43.8881V6.28001ZM48.3041 6.28001V0.520011H49.0721V6.28001H48.3041ZM52.3361 6.28001H51.5681V1.19201H49.9361V0.520011H53.8721V1.19201H52.2401V6.28001H52.3361ZM61.4561 5.51201C60.8801 6.08801 60.2081 6.37601 59.3441 6.37601C58.4801 6.37601 57.8081 6.08801 57.2321 5.51201C56.6561 4.93601 56.3681 4.26401 56.3681 3.40001C56.3681 2.53601 56.6561 1.86401 57.2321 1.28801C57.8081 0.712011 58.4801 0.424011 59.3441 0.424011C60.2081 0.424011 60.8801 0.712011 61.4561 1.28801C62.0321 1.86401 62.3201 2.53601 62.3201 3.40001C62.3201 4.26401 62.0321 4.93601 61.4561 5.51201ZM57.8081 5.03201C58.1921 5.41601 58.7681 5.70401 59.3441 5.70401C59.9201 5.70401 60.4961 5.51201 60.8801 5.03201C61.2641 4.64801 61.5521 4.07201 61.5521 3.40001C61.5521 2.72801 61.3601 2.15201 60.8801 1.76801C60.4961 1.38401 59.9201 1.09601 59.3441 1.09601C58.7681 1.09601 58.1921 1.28801 57.8081 1.76801C57.4241 2.15201 57.1361 2.72801 57.1361 3.40001C57.1361 4.07201 57.3281 4.64801 57.8081 5.03201ZM63.3761 6.28001V0.520011H64.2401L67.0241 5.03201V0.520011H67.7921V6.28001H67.0241L64.0481 1.57601V6.28001H63.3761Z" fill="white" stroke="white" stroke-width="0.5"/>
<path d="M56.176 14.728C53.872 14.728 52.048 16.456 52.048 18.856C52.048 21.16 53.872 22.984 56.176 22.984C58.48 22.984 60.304 21.256 60.304 18.856C60.304 16.36 58.48 14.728 56.176 14.728ZM56.176 21.256C54.928 21.256 53.872 20.2 53.872 18.76C53.872 17.32 54.928 16.264 56.176 16.264C57.424 16.264 58.48 17.224 58.48 18.76C58.48 20.2 57.424 21.256 56.176 21.256ZM47.248 14.728C44.944 14.728 43.12 16.456 43.12 18.856C43.12 21.16 44.944 22.984 47.248 22.984C49.552 22.984 51.376 21.256 51.376 18.856C51.376 16.36 49.552 14.728 47.248 14.728ZM47.248 21.256C46 21.256 44.944 20.2 44.944 18.76C44.944 17.32 46 16.264 47.248 16.264C48.496 16.264 49.552 17.224 49.552 18.76C49.552 20.2 48.496 21.256 47.248 21.256ZM36.592 15.976V17.704H40.72C40.624 18.664 40.24 19.432 39.76 19.912C39.184 20.488 38.224 21.16 36.592 21.16C34 21.16 32.08 19.144 32.08 16.552C32.08 13.96 34.096 11.944 36.592 11.944C37.936 11.944 38.992 12.52 39.76 13.192L41.008 11.944C39.952 10.984 38.608 10.216 36.688 10.216C33.232 10.216 30.256 13.096 30.256 16.552C30.256 20.008 33.232 22.888 36.688 22.888C38.608 22.888 39.952 22.312 41.104 21.064C42.256 19.912 42.64 18.28 42.64 17.032C42.64 16.648 42.64 16.264 42.544 15.976H36.592ZM80.176 17.32C79.792 16.36 78.832 14.728 76.72 14.728C74.608 14.728 72.88 16.36 72.88 18.856C72.88 21.16 74.608 22.984 76.912 22.984C78.736 22.984 79.888 21.832 80.272 21.16L78.928 20.2C78.448 20.872 77.872 21.352 76.912 21.352C75.952 21.352 75.376 20.968 74.896 20.104L80.368 17.8L80.176 17.32ZM74.608 18.664C74.608 17.128 75.856 16.264 76.72 16.264C77.392 16.264 78.064 16.648 78.256 17.128L74.608 18.664ZM70.096 22.6H71.92V10.6H70.096V22.6ZM67.216 15.592C66.736 15.112 65.968 14.632 65.008 14.632C62.992 14.632 61.072 16.456 61.072 18.76C61.072 21.064 62.896 22.792 65.008 22.792C65.968 22.792 66.736 22.312 67.12 21.832H67.216V22.408C67.216 23.944 66.352 24.808 65.008 24.808C63.952 24.808 63.184 24.04 62.992 23.368L61.456 24.04C61.936 25.096 63.088 26.44 65.104 26.44C67.216 26.44 68.944 25.192 68.944 22.216V14.92H67.216V15.592ZM65.104 21.256C63.856 21.256 62.8 20.2 62.8 18.76C62.8 17.32 63.856 16.264 65.104 16.264C66.352 16.264 67.312 17.32 67.312 18.76C67.312 20.2 66.352 21.256 65.104 21.256ZM88.528 10.6H84.208V22.6H86.032V18.088H88.528C90.544 18.088 92.464 16.648 92.464 14.344C92.464 12.04 90.544 10.6 88.528 10.6ZM88.624 16.36H86.032V12.232H88.624C89.968 12.232 90.736 13.384 90.736 14.248C90.64 15.304 89.872 16.36 88.624 16.36ZM99.664 14.632C98.32 14.632 96.976 15.208 96.496 16.456L98.128 17.128C98.512 16.456 99.088 16.264 99.76 16.264C100.72 16.264 101.584 16.84 101.68 17.8V17.896C101.392 17.704 100.624 17.416 99.856 17.416C98.128 17.416 96.4 18.376 96.4 20.104C96.4 21.736 97.84 22.792 99.376 22.792C100.624 22.792 101.2 22.216 101.68 21.64H101.776V22.6H103.504V17.992C103.312 15.88 101.68 14.632 99.664 14.632ZM99.472 21.256C98.896 21.256 98.032 20.968 98.032 20.2C98.032 19.24 99.088 18.952 99.952 18.952C100.72 18.952 101.104 19.144 101.584 19.336C101.392 20.488 100.432 21.256 99.472 21.256ZM109.552 14.92L107.536 20.104H107.44L105.328 14.92H103.408L106.576 22.216L104.752 26.248H106.576L111.472 14.92H109.552ZM93.424 22.6H95.248V10.6H93.424V22.6Z" fill="white"/>
<path d="M0.783955 1C0.495955 1.288 0.303955 1.768 0.303955 2.344V23.56C0.303955 24.136 0.495955 24.616 0.783955 24.904L0.879955 25L12.784 13.096V12.904L0.783955 1Z" fill="url(#paint0_linear)"/>
<path d="M16.7199 17.128L12.7839 13.192V12.904L16.7199 8.96796L16.8159 9.06396L21.5199 11.752C22.8639 12.52 22.8639 13.768 21.5199 14.536L16.7199 17.128Z" fill="url(#paint1_linear)"/>
<path d="M16.8159 17.032L12.7839 13L0.783936 25C1.26394 25.48 1.93594 25.48 2.79994 25.096L16.8159 17.032Z" fill="url(#paint2_linear)"/>
<path d="M16.8159 8.96796L2.79994 0.999964C1.93594 0.519964 1.26394 0.615964 0.783936 1.09596L12.7839 13L16.8159 8.96796Z" fill="url(#paint3_linear)"/>
<path opacity="0.2" d="M16.7199 16.936L2.79994 24.808C2.03194 25.288 1.35994 25.192 0.879936 24.808L0.783936 24.904L0.879936 25C1.35994 25.384 2.03194 25.48 2.79994 25L16.7199 16.936Z" fill="black"/>
<path opacity="0.12" d="M0.784024 24.808C0.496024 24.52 0.400024 24.04 0.400024 23.464V23.56C0.400024 24.136 0.592025 24.616 0.880025 24.904V24.808H0.784024ZM21.52 14.248L16.72 16.936L16.816 17.032L21.52 14.344C22.192 13.96 22.48 13.48 22.48 13C22.48 13.48 22.096 13.864 21.52 14.248Z" fill="black"/>
<path opacity="0.25" d="M2.80002 1.09595L21.52 11.752C22.096 12.136 22.48 12.52 22.48 13C22.48 12.52 22.192 12.04 21.52 11.656L2.80002 0.99995C1.45602 0.23195 0.400024 0.90395 0.400024 2.43995V2.53595C0.400024 0.99995 1.45602 0.32795 2.80002 1.09595Z" fill="white"/>
<defs>
<linearGradient id="paint0_linear" x1="7.94555" y1="2.1616" x2="-2.28805" y2="12.3952" gradientUnits="userSpaceOnUse">
<stop stop-color="#00A0FF"/>
<stop offset="0.007" stop-color="#00A1FF"/>
<stop offset="0.26" stop-color="#00BEFF"/>
<stop offset="0.512" stop-color="#00D2FF"/>
<stop offset="0.76" stop-color="#00DFFF"/>
<stop offset="1" stop-color="#00E3FF"/>
</linearGradient>
<linearGradient id="paint1_linear" x1="23.2807" y1="13.0016" x2="0.0519341" y2="13.0016" gradientUnits="userSpaceOnUse">
<stop stop-color="#FFE000"/>
<stop offset="0.409" stop-color="#FFBD00"/>
<stop offset="0.775" stop-color="#FFA500"/>
<stop offset="1" stop-color="#FF9C00"/>
</linearGradient>
<linearGradient id="paint2_linear" x1="14.6335" y1="16.8144" x2="-2.79686" y2="34.2448" gradientUnits="userSpaceOnUse">
<stop stop-color="#FF3A44"/>
<stop offset="1" stop-color="#C31162"/>
</linearGradient>
<linearGradient id="paint3_linear" x1="-2.19446" y1="-0.754437" x2="5.56234" y2="7.00236" gradientUnits="userSpaceOnUse">
<stop stop-color="#32A071"/>
<stop offset="0.069" stop-color="#2DA771"/>
<stop offset="0.476" stop-color="#15CF74"/>
<stop offset="0.801" stop-color="#06E775"/>
<stop offset="1" stop-color="#00F076"/>
</linearGradient>
</defs>
</svg>
